# xmcd
# 
# Track frame offsets:
#     150
#     25183
#     38047
#     54754
#     72768
#     93159
#     110207
#     129898
#     141261
#     154079
# 
# Disc length: 2192
# 
# Revision: 1
# Processed by: cddbd v1.5.2PL0 Copyright (c) Steve Scherf et al.
# Submitted via: fre:ac v1.0.31
# 
DISCID=7b088e0a
DTITLE=Damien Jurado - Maraqopa
DYEAR=12
DGENRE=
TTITLE0=Nothing is the News
TTITLE1=Life Away from the Garden
TTITLE2=Maraqopa
TTITLE3=This Time Next Year
TTITLE4=Reel to Reel
TTITLE5=Working Titles
TTITLE6=Everyone a Star
TTITLE7=So On, Nevada
TTITLE8=Museum of Flight
TTITLE9=Mountains Still Asleep
EXTD=
EXTT0=
EXTT1=
EXTT2=
EXTT3=
EXTT4=
EXTT5=
EXTT6=
EXTT7=
EXTT8=
EXTT9=
PLAYORDER=
